<svg width="264" height="67" viewBox="0 0 264 67" fill="none" xmlns="http://www.w3.org/2000/svg">
<path d="M65.9091 21.392V16.0909H93.7614V21.392H82.9716V51H76.6989V21.392H65.9091ZM106.482 51.5114C103.925 51.5114 101.709 50.9489 99.8338 49.8239C97.9588 48.6989 96.5043 47.125 95.4702 45.1023C94.4474 43.0795 93.9361 40.7159 93.9361 38.0114C93.9361 35.3068 94.4474 32.9375 95.4702 30.9034C96.5043 28.8693 97.9588 27.2898 99.8338 26.1648C101.709 25.0398 103.925 24.4773 106.482 24.4773C109.038 24.4773 111.254 25.0398 113.129 26.1648C115.004 27.2898 116.453 28.8693 117.476 30.9034C118.51 32.9375 119.027 35.3068 119.027 38.0114C119.027 40.7159 118.51 43.0795 117.476 45.1023C116.453 47.125 115.004 48.6989 113.129 49.8239C111.254 50.9489 109.038 51.5114 106.482 51.5114ZM106.516 46.5682C107.902 46.5682 109.061 46.1875 109.993 45.4261C110.925 44.6534 111.618 43.6193 112.072 42.3239C112.538 41.0284 112.771 39.5852 112.771 37.9943C112.771 36.392 112.538 34.9432 112.072 33.6477C111.618 32.3409 110.925 31.3011 109.993 30.5284C109.061 29.7557 107.902 29.3693 106.516 29.3693C105.095 29.3693 103.913 29.7557 102.97 30.5284C102.038 31.3011 101.339 32.3409 100.874 33.6477C100.419 34.9432 100.192 36.392 100.192 37.9943C100.192 39.5852 100.419 41.0284 100.874 42.3239C101.339 43.6193 102.038 44.6534 102.97 45.4261C103.913 46.1875 105.095 46.5682 106.516 46.5682ZM136.366 51H124.537V16.0909H136.605C140.071 16.0909 143.048 16.7898 145.537 18.1875C148.037 19.5739 149.957 21.5682 151.298 24.1705C152.639 26.7727 153.31 29.8864 153.31 33.5114C153.31 37.1477 152.634 40.2727 151.281 42.8864C149.94 45.5 148.003 47.5057 145.469 48.9034C142.946 50.3011 139.912 51 136.366 51ZM130.861 45.5284H136.06C138.491 45.5284 140.52 45.0852 142.145 44.1989C143.77 43.3011 144.991 41.9659 145.81 40.1932C146.628 38.4091 147.037 36.1818 147.037 33.5114C147.037 30.8409 146.628 28.625 145.81 26.8636C144.991 25.0909 143.781 23.767 142.179 22.892C140.588 22.0057 138.611 21.5625 136.247 21.5625H130.861V45.5284ZM170.466 51.5114C167.909 51.5114 165.693 50.9489 163.818 49.8239C161.943 48.6989 160.489 47.125 159.455 45.1023C158.432 43.0795 157.92 40.7159 157.92 38.0114C157.92 35.3068 158.432 32.9375 159.455 30.9034C160.489 28.8693 161.943 27.2898 163.818 26.1648C165.693 25.0398 167.909 24.4773 170.466 24.4773C173.023 24.4773 175.239 25.0398 177.114 26.1648C178.989 27.2898 180.438 28.8693 181.46 30.9034C182.494 32.9375 183.011 35.3068 183.011 38.0114C183.011 40.7159 182.494 43.0795 181.46 45.1023C180.438 47.125 178.989 48.6989 177.114 49.8239C175.239 50.9489 173.023 51.5114 170.466 51.5114ZM170.5 46.5682C171.886 46.5682 173.045 46.1875 173.977 45.4261C174.909 44.6534 175.602 43.6193 176.057 42.3239C176.523 41.0284 176.756 39.5852 176.756 37.9943C176.756 36.392 176.523 34.9432 176.057 33.6477C175.602 32.3409 174.909 31.3011 173.977 30.5284C173.045 29.7557 171.886 29.3693 170.5 29.3693C169.08 29.3693 167.898 29.7557 166.955 30.5284C166.023 31.3011 165.324 32.3409 164.858 33.6477C164.403 34.9432 164.176 36.392 164.176 37.9943C164.176 39.5852 164.403 41.0284 164.858 42.3239C165.324 43.6193 166.023 44.6534 166.955 45.4261C167.898 46.1875 169.08 46.5682 170.5 46.5682ZM190.533 51V16.0909H191.624V49.9091H209.078V51H190.533ZM216.851 51V24.8182H217.942V51H216.851ZM217.396 20.0455C217.101 20.0455 216.845 19.9375 216.629 19.7216C216.413 19.5057 216.305 19.25 216.305 18.9545C216.305 18.6591 216.413 18.4034 216.629 18.1875C216.845 17.9716 217.101 17.8636 217.396 17.8636C217.692 17.8636 217.947 17.9716 218.163 18.1875C218.379 18.4034 218.487 18.6591 218.487 18.9545C218.487 19.25 218.379 19.5057 218.163 19.7216C217.947 19.9375 217.692 20.0455 217.396 20.0455ZM243.037 30.3409L241.946 30.6136C241.594 29.4773 241.099 28.5341 240.463 27.7841C239.838 27.0227 239.071 26.4545 238.162 26.0795C237.253 25.6932 236.196 25.5 234.991 25.5C232.901 25.5 231.207 26.0341 229.912 27.1023C228.616 28.1591 227.969 29.5568 227.969 31.2955C227.969 32.6705 228.406 33.8239 229.281 34.7557C230.168 35.6875 231.503 36.375 233.287 36.8182L237.378 37.8409C239.298 38.3182 240.753 39.125 241.741 40.2614C242.741 41.3977 243.241 42.7727 243.241 44.3864C243.241 45.8068 242.866 47.0568 242.116 48.1364C241.378 49.2159 240.355 50.0568 239.048 50.6591C237.741 51.25 236.23 51.5455 234.514 51.5455C232.185 51.5455 230.281 50.9773 228.804 49.8409C227.327 48.7045 226.366 47.0909 225.923 45L227.014 44.7273C227.401 46.5795 228.224 48 229.486 48.9886C230.759 49.9659 232.435 50.4545 234.514 50.4545C236.787 50.4545 238.628 49.8977 240.037 48.7841C241.446 47.6705 242.151 46.2045 242.151 44.3864C242.151 43.0341 241.73 41.892 240.889 40.9602C240.048 40.0284 238.787 39.3523 237.105 38.9318L233.014 37.9091C231.003 37.4091 229.474 36.5909 228.429 35.4545C227.395 34.3182 226.878 32.9318 226.878 31.2955C226.878 29.9205 227.219 28.7216 227.901 27.6989C228.594 26.6648 229.548 25.858 230.764 25.2784C231.991 24.6989 233.401 24.4091 234.991 24.4091C237.014 24.4091 238.702 24.9091 240.054 25.9091C241.406 26.8977 242.401 28.375 243.037 30.3409ZM259.209 24.8182V25.9091H248.845V24.8182H259.209ZM252.663 18.5455H253.754V45.4773C253.754 46.5 253.982 47.3807 254.436 48.1193C254.891 48.8466 255.493 49.4091 256.243 49.8068C256.993 50.1932 257.8 50.3864 258.663 50.3864C258.993 50.3864 259.294 50.358 259.567 50.3011C259.851 50.2443 260.141 50.1591 260.436 50.0455L260.777 51.0682C260.436 51.1932 260.101 51.2898 259.771 51.358C259.442 51.4375 259.072 51.4773 258.663 51.4773C257.595 51.4773 256.601 51.233 255.68 50.7443C254.771 50.2557 254.038 49.5625 253.482 48.6648C252.936 47.767 252.663 46.7045 252.663 45.4773V18.5455Z" fill="#DBEDF3"/>
<path fill-rule="evenodd" clip-rule="evenodd" d="M49 19.9645V17C49 12.5817 45.4183 9 41 9H8C3.58172 9 0 12.5817 0 17V50C0 54.4183 3.58172 58 8 58H41C45.4183 58 49 54.4183 49 50V27.0355L26.7678 49.2678L25 51.0355L23.2322 49.2678L11.2322 37.2678C10.2559 36.2915 10.2559 34.7085 11.2322 33.7322C12.2085 32.7559 13.7915 32.7559 14.7678 33.7322L25 43.9645L49 19.9645Z" fill="#5568FE"/>
</svg>
